<svg id="Layer_1" data-name="Layer 1" xmlns="http://www.w3.org/2000/svg" xmlns:xlink="http://www.w3.org/1999/xlink" viewBox="0 0 133.84 31.45"><defs><style>.cls-1{fill-rule:evenodd;fill:url(#linear-gradient);}.cls-2{fill:#172770;}</style><linearGradient id="linear-gradient" x1="116.2" y1="64.71" x2="37.44" y2="-14.06" gradientUnits="userSpaceOnUse"><stop offset="0" stop-color="#c5af18"/><stop offset="1" stop-color="#e5e76e"/></linearGradient></defs><path class="cls-1" d="M9.9,13.48,13.78,9.6h130V37.17l-3.88,3.88H24.08l-2.47-2.47H9.9V13.48ZM142.46,15.7V10.89h-4.82l4.82,4.81ZM9.9,39.81h8l1.24,1.24H9.9V39.81Z" transform="translate(-9.9 -9.6)"/><path class="cls-2" d="M46.3,25.16A2.67,2.67,0,0,1,44.57,28l2.3,3.26h-2.5l-2-2.91H41v2.91h-2v-9.1h3.46a4.91,4.91,0,0,1,3,.71A2.76,2.76,0,0,1,46.3,25.16Zm-2.45,1.08a1.4,1.4,0,0,0,.38-1.08,1.16,1.16,0,0,0-.39-1,2.54,2.54,0,0,0-1.37-.27H41v2.7h1.48A2.23,2.23,0,0,0,43.85,26.24Z" transform="translate(-9.9 -9.6)"/><path class="cls-2" d="M55,22.14V24H50.41v1.87h4.08v1.73H50.41v1.89h4.68v1.8H48.38v-9.1Z" transform="translate(-9.9 -9.6)"/><path class="cls-2" d="M63.38,31.24l-.84-2H58.72l-.84,2H55.71l3.94-9.1h2l3.94,9.1Zm-2.74-6.4-1.15,2.65h2.28Z" transform="translate(-9.9 -9.6)"/><path class="cls-2" d="M73.55,23.33a4.26,4.26,0,0,1,1.31,3.31A4.45,4.45,0,0,1,73.59,30a5.35,5.35,0,0,1-3.88,1.24H66.6v-9.1h3.22A5.29,5.29,0,0,1,73.55,23.33Zm-1.49,5.41a2.67,2.67,0,0,0,.75-2,2.73,2.73,0,0,0-.75-2.06,3.19,3.19,0,0,0-2.29-.72H68.63v5.53h1.29A3,3,0,0,0,72.06,28.74Z" transform="translate(-9.9 -9.6)"/><path class="cls-2" d="M88.21,25.51l-2.46,5H84.53l-2.44-5v5.73h-2v-9.1H82.8l2.35,5,2.35-5h2.74v9.1h-2Z" transform="translate(-9.9 -9.6)"/><path class="cls-2" d="M100.14,30a5,5,0,0,1-6.8,0,4.77,4.77,0,0,1,0-6.71,5,5,0,0,1,6.8,0,4.77,4.77,0,0,1,0,6.71Zm-.69-3.34a3,3,0,0,0-.78-2.08,2.5,2.5,0,0,0-1.93-.86,2.47,2.47,0,0,0-1.92.86,3.15,3.15,0,0,0,0,4.15,2.53,2.53,0,0,0,1.92.85,2.56,2.56,0,0,0,1.93-.85A3,3,0,0,0,99.45,26.64Z" transform="translate(-9.9 -9.6)"/><path class="cls-2" d="M110.62,25.16A2.67,2.67,0,0,1,108.89,28l2.3,3.26h-2.5l-2-2.91h-1.4v2.91h-2v-9.1h3.45a4.91,4.91,0,0,1,3,.71A2.76,2.76,0,0,1,110.62,25.16Zm-2.45,1.08a1.4,1.4,0,0,0,.38-1.08,1.16,1.16,0,0,0-.39-1,2.54,2.54,0,0,0-1.37-.27h-1.52v2.7h1.48A2.21,2.21,0,0,0,108.17,26.24Z" transform="translate(-9.9 -9.6)"/><path class="cls-2" d="M119.27,22.14V24h-4.54v1.87h4.08v1.73h-4.08v1.89h4.68v1.8H112.7v-9.1Z" transform="translate(-9.9 -9.6)"/></svg>