<svg id="Layer_1" data-name="Layer 1" xmlns="http://www.w3.org/2000/svg" xmlns:xlink="http://www.w3.org/1999/xlink" viewBox="0 0 230.06 315.61"><defs><style>.cls-1{fill-rule:evenodd;fill:url(#linear-gradient);}.cls-2{fill:#172770;}</style><linearGradient id="linear-gradient" x1="194.61" y1="351.35" x2="59.22" y2="215.96" gradientUnits="userSpaceOnUse"><stop offset="0" stop-color="#919318"/><stop offset="1" stop-color="#e5e76e"/></linearGradient></defs><image width="1289" height="1832" transform="translate(7.78) scale(0.16)" xlink:href="../../../../Volumes/Nicholas%20Digital%201/00%20Blase%20Bunny%20/NFT%20Website%20%20/Round%203/Links/Team/Daniel.png"/><path class="cls-1" d="M11.89,263.29l6.66-6.66H241.94V304l-6.67,6.66h-199L32,306.43H11.89V263.29Zm227.84,3.82v-8.27h-8.28l8.28,8.27ZM11.89,308.55h13.7l2.12,2.13H11.89v-2.13Z" transform="translate(-11.89 4.93)"/><path class="cls-2" d="M82,280.32H76.44V267.73h4.9a7.16,7.16,0,0,1,2.2.31,3.16,3.16,0,0,1,1.4.83,3.27,3.27,0,0,1,.84,2.19,2.59,2.59,0,0,1-1,2.2c-.22.17-.37.27-.45.32l-.45.2a3.31,3.31,0,0,1,1.86,1.05,3,3,0,0,1,.69,2,3.41,3.41,0,0,1-.9,2.33Q84.55,280.32,82,280.32Zm-2.7-7.49h1.33a4.71,4.71,0,0,0,1.74-.25,1.08,1.08,0,0,0,.56-1.09,1.12,1.12,0,0,0-.52-1.11,4.12,4.12,0,0,0-1.76-.27H79.25Zm0,5.11h1.92a4.2,4.2,0,0,0,1.81-.3,1.17,1.17,0,0,0,.61-1.17,1.14,1.14,0,0,0-.64-1.15,5.64,5.64,0,0,0-2-.28H79.25Z" transform="translate(-11.89 4.93)"/><path class="cls-2" d="M88.84,280.32V267.73h2.81v10.08H97v2.51Z" transform="translate(-11.89 4.93)"/><path class="cls-2" d="M108,280.32l-1.17-2.72h-5.27l-1.17,2.72h-3l5.43-12.59h2.72L111,280.32Zm-3.8-8.84-1.58,3.65h3.15Z" transform="translate(-11.89 4.93)"/><path class="cls-2" d="M115.33,270.25a1.08,1.08,0,0,0-.41.88,1,1,0,0,0,.5.87,9,9,0,0,0,2.29.77,6.38,6.38,0,0,1,2.78,1.32,3.26,3.26,0,0,1,1,2.57,3.42,3.42,0,0,1-1.27,2.75,5.08,5.08,0,0,1-3.34,1,7.74,7.74,0,0,1-5.38-2.21l1.67-2.06a6,6,0,0,0,3.76,1.79,1.94,1.94,0,0,0,1.22-.34,1.12,1.12,0,0,0,0-1.8,6.23,6.23,0,0,0-1.85-.67,8.07,8.07,0,0,1-3.22-1.36,3.23,3.23,0,0,1-1-2.63,3.27,3.27,0,0,1,1.28-2.76,5.18,5.18,0,0,1,3.22-1,7.67,7.67,0,0,1,2.52.43,6.67,6.67,0,0,1,2.19,1.22l-1.42,2a5.58,5.58,0,0,0-3.38-1.24A1.66,1.66,0,0,0,115.33,270.25Z" transform="translate(-11.89 4.93)"/><path class="cls-2" d="M132.94,267.73v2.51h-6.26v2.59h5.63v2.39h-5.63v2.61h6.46v2.49h-9.27V267.73Zm-3.51-1.29h-2.57l2.28-3.19,2.79,1.17Z" transform="translate(-11.89 4.93)"/><path class="cls-2" d="M150,269.38a5.91,5.91,0,0,1,1.8,4.58,6.19,6.19,0,0,1-1.75,4.65q-1.76,1.71-5.36,1.71h-4.3V267.73h4.45A7.37,7.37,0,0,1,150,269.38Zm-2.06,7.48a3.7,3.7,0,0,0,1-2.83,3.79,3.79,0,0,0-1-2.85,4.45,4.45,0,0,0-3.17-1H143.2v7.65H145A4.14,4.14,0,0,0,147.94,276.86Z" transform="translate(-11.89 4.93)"/><path class="cls-2" d="M162.84,280.32l-1.17-2.72H156.4l-1.17,2.72h-3l5.43-12.59h2.72l5.44,12.59Zm-3.8-8.84-1.58,3.65h3.15Z" transform="translate(-11.89 4.93)"/><path class="cls-2" d="M176.09,267.73h2.81v12.59h-2.81l-6-7.89v7.89h-2.8V267.73h2.62l6.18,8.1Z" transform="translate(-11.89 4.93)"/><path class="cls-2" d="M46.67,290.13v8.27H45v-8.27h-3v-1.52h7.59v1.52Z" transform="translate(-11.89 4.93)"/><path class="cls-2" d="M52.71,294.37v4H51.14V288h1.57v4.28a2.45,2.45,0,0,1,1-1.08,2.88,2.88,0,0,1,1.46-.39,2.79,2.79,0,0,1,2,.77,3,3,0,0,1,.78,2.23v4.56H56.43v-4.09c0-1.37-.57-2.06-1.71-2.06a2,2,0,0,0-2,2.12Z" transform="translate(-11.89 4.93)"/><path class="cls-2" d="M67.11,295.36H61.27a1.73,1.73,0,0,0,.74,1.31,2.65,2.65,0,0,0,1.57.5,2.61,2.61,0,0,0,2.13-.88l.9,1a4.18,4.18,0,0,1-3.14,1.24,3.74,3.74,0,0,1-2.67-1,3.69,3.69,0,0,1-1.09-2.8,3.6,3.6,0,0,1,1.12-2.79,3.74,3.74,0,0,1,2.63-1,3.84,3.84,0,0,1,2.59.92,3.14,3.14,0,0,1,1.06,2.52Zm-5.84-1.23h4.27a1.78,1.78,0,0,0-.58-1.44,2.16,2.16,0,0,0-1.45-.51,2.49,2.49,0,0,0-1.55.53A1.69,1.69,0,0,0,61.27,294.13Z" transform="translate(-11.89 4.93)"/><path class="cls-2" d="M77.18,298.4H72.89v-9.79H76.7a5.49,5.49,0,0,1,1.72.24,2.41,2.41,0,0,1,1.07.65,2.47,2.47,0,0,1,.67,1.7,2,2,0,0,1-.73,1.71l-.36.25-.35.16a2.56,2.56,0,0,1,1.45.82,2.26,2.26,0,0,1,.54,1.54,2.62,2.62,0,0,1-.71,1.81A3.66,3.66,0,0,1,77.18,298.4Zm-2.64-5.73h2.11c1.19,0,1.79-.4,1.79-1.21a1.15,1.15,0,0,0-.44-1,2.29,2.29,0,0,0-1.34-.31H74.54Zm0,4.2h2.59a2.79,2.79,0,0,0,1.4-.28A1.17,1.17,0,0,0,79,295.5c0-.87-.69-1.3-2.09-1.3H74.54Z" transform="translate(-11.89 4.93)"/><path class="cls-2" d="M87.76,295v-4h1.57v7.45H87.76V297a2.77,2.77,0,0,1-1,1.08,2.81,2.81,0,0,1-1.44.39,2.71,2.71,0,0,1-2-.77,3,3,0,0,1-.78-2.22V291H84V295c0,1.37.57,2.06,1.71,2.06a2,2,0,0,0,2-2.12Z" transform="translate(-11.89 4.93)"/><path class="cls-2" d="M93.17,294.37v4H91.6V291h1.57v1.36a2.7,2.7,0,0,1,1-1.08,3,3,0,0,1,3.47.38,3,3,0,0,1,.78,2.23v4.56H96.89v-4.09c0-1.37-.57-2.06-1.71-2.06a2,2,0,0,0-2,2.12Z" transform="translate(-11.89 4.93)"/><path class="cls-2" d="M102.21,294.37v4h-1.57V291h1.57v1.36a2.77,2.77,0,0,1,1-1.08,2.81,2.81,0,0,1,1.44-.39,2.75,2.75,0,0,1,2,.77,3,3,0,0,1,.78,2.23v4.56h-1.57v-4.09c0-1.37-.57-2.06-1.71-2.06a2,2,0,0,0-2,2.12Z" transform="translate(-11.89 4.93)"/><path class="cls-2" d="M110.53,301.37a2.7,2.7,0,0,1-1.85-.74l.71-1.28a1.48,1.48,0,0,0,1,.46,1.07,1.07,0,0,0,.85-.37,1.25,1.25,0,0,0,.33-.83q0-.19-3-7.66h1.68l2.23,5.49,2.22-5.49h1.68l-3.61,8.85a2.71,2.71,0,0,1-.92,1.15A2.3,2.3,0,0,1,110.53,301.37Z" transform="translate(-11.89 4.93)"/><path class="cls-2" d="M127.69,297.4a4.09,4.09,0,0,1-5.6,0,3.88,3.88,0,0,1,0-5.45,4.09,4.09,0,0,1,5.6,0,3.88,3.88,0,0,1,0,5.45Zm-4.49-1a2.44,2.44,0,0,0,3.38,0,2.66,2.66,0,0,0,0-3.51,2.44,2.44,0,0,0-3.38,0,2.66,2.66,0,0,0,0,3.51Z" transform="translate(-11.89 4.93)"/><path class="cls-2" d="M132.41,290.34V291h2v1.26h-2v6.19h-1.57v-6.19h-.94V291h.94v-.57a2.46,2.46,0,0,1,.71-1.87,2.35,2.35,0,0,1,1.7-.69,2.65,2.65,0,0,1,1.83.74l-.64,1.1a1.36,1.36,0,0,0-1-.49,1,1,0,0,0-.78.32A1.21,1.21,0,0,0,132.41,290.34Z" transform="translate(-11.89 4.93)"/><path class="cls-2" d="M148.13,297.05a5.37,5.37,0,0,1-7.34,0,5.14,5.14,0,0,1,0-7.22,5.37,5.37,0,0,1,7.34,0,5.14,5.14,0,0,1,0,7.22Zm-1.21-6.13a3.45,3.45,0,0,0-4.92,0,3.66,3.66,0,0,0,0,5,3.43,3.43,0,0,0,4.92,0,3.66,3.66,0,0,0,0-5Z" transform="translate(-11.89 4.93)"/><path class="cls-2" d="M155.46,290.84a3.56,3.56,0,0,1,2.57,1,3.66,3.66,0,0,1,1.06,2.75,3.79,3.79,0,0,1-1.06,2.8,3.32,3.32,0,0,1-2.46,1.08,3.36,3.36,0,0,1-2.53-1.23v3.84h-1.57V291H153v1.3A2.79,2.79,0,0,1,155.46,290.84ZM153,294.69a2.42,2.42,0,0,0,.65,1.74,2.05,2.05,0,0,0,1.57.68,2.23,2.23,0,0,0,1.61-.67,2.36,2.36,0,0,0,.68-1.74,2.46,2.46,0,0,0-.67-1.78,2.15,2.15,0,0,0-1.61-.71,2.05,2.05,0,0,0-1.58.71A2.53,2.53,0,0,0,153,294.69Z" transform="translate(-11.89 4.93)"/><path class="cls-2" d="M167.81,295.36H162a1.71,1.71,0,0,0,.75,1.31,2.87,2.87,0,0,0,3.69-.38l.9,1a4.18,4.18,0,0,1-3.14,1.24,3.74,3.74,0,0,1-2.67-1,3.69,3.69,0,0,1-1.09-2.8,3.6,3.6,0,0,1,1.12-2.79,3.74,3.74,0,0,1,2.64-1,3.83,3.83,0,0,1,2.58.92,3.14,3.14,0,0,1,1.06,2.52ZM162,294.13h4.27a1.78,1.78,0,0,0-.58-1.44,2.16,2.16,0,0,0-1.45-.51,2.49,2.49,0,0,0-1.55.53A1.69,1.69,0,0,0,162,294.13Z" transform="translate(-11.89 4.93)"/><path class="cls-2" d="M173.44,292.42a2.07,2.07,0,0,0-1.75.76,3.22,3.22,0,0,0-.59,2v3.19h-1.57V291h1.57v1.5a3.26,3.26,0,0,1,1-1.15,2.5,2.5,0,0,1,1.38-.46v1.58Z" transform="translate(-11.89 4.93)"/><path class="cls-2" d="M181.06,298.4h-1.43v-1a3.08,3.08,0,0,1-2.48,1.1,2.86,2.86,0,0,1-1.93-.66,2.21,2.21,0,0,1-.76-1.75,1.87,1.87,0,0,1,.81-1.65,3.94,3.94,0,0,1,2.2-.54h2v-.28c0-1-.55-1.49-1.65-1.49a3.86,3.86,0,0,0-2.16.76l-.7-1a4.84,4.84,0,0,1,3.08-1.08,3.29,3.29,0,0,1,2.15.67,2.5,2.5,0,0,1,.84,2.09Zm-1.57-2.77V295h-1.77c-1.13,0-1.69.35-1.69,1.06a1,1,0,0,0,.42.84,2.07,2.07,0,0,0,1.17.28,2.14,2.14,0,0,0,1.31-.42A1.35,1.35,0,0,0,179.49,295.63Z" transform="translate(-11.89 4.93)"/><path class="cls-2" d="M185.09,292.21V296a1.21,1.21,0,0,0,.28.85,1,1,0,0,0,.78.31,1.33,1.33,0,0,0,1-.49l.64,1.11a2.65,2.65,0,0,1-1.83.74,2.35,2.35,0,0,1-1.7-.69,2.47,2.47,0,0,1-.71-1.87v-3.74h-.94V291h.94v-2.34h1.57V291h2v1.26Z" transform="translate(-11.89 4.93)"/><path class="cls-2" d="M189.11,289.47a1,1,0,0,1-.3-.7,1,1,0,0,1,1-1,1,1,0,0,1,.7.3,1,1,0,0,1,.29.7,1,1,0,0,1-1,1A1,1,0,0,1,189.11,289.47Zm1.47,8.93H189V291h1.57Z" transform="translate(-11.89 4.93)"/><path class="cls-2" d="M199.07,297.4a4.09,4.09,0,0,1-5.6,0,3.88,3.88,0,0,1,0-5.45,4.09,4.09,0,0,1,5.6,0,3.88,3.88,0,0,1,0,5.45Zm-4.48-1a2.43,2.43,0,0,0,3.37,0,2.63,2.63,0,0,0,0-3.51,2.43,2.43,0,0,0-3.37,0,2.63,2.63,0,0,0,0,3.51Z" transform="translate(-11.89 4.93)"/><path class="cls-2" d="M203.54,294.37v4H202V291h1.57v1.36a2.77,2.77,0,0,1,1-1.08,2.81,2.81,0,0,1,1.44-.39,2.75,2.75,0,0,1,2,.77,3,3,0,0,1,.78,2.23v4.56h-1.57v-4.09c0-1.37-.57-2.06-1.7-2.06a2,2,0,0,0-1.42.54A2,2,0,0,0,203.54,294.37Z" transform="translate(-11.89 4.93)"/></svg>